<svg width="14" height="19" viewBox="0 0 14 19" fill="none" xmlns="http://www.w3.org/2000/svg">
<path d="M7 18.1542C6.53967 18.1542 6.13933 18.0001 5.799 17.6917C5.45867 17.3834 5.25642 16.9992 5.19225 16.539H8.80775C8.74358 16.9992 8.54133 17.3834 8.201 17.6917C7.86067 18.0001 7.46033 18.1542 7 18.1542ZM3.5 14.7697V13.7697H10.5V14.7697H3.5ZM3.55775 12.0005C2.61292 11.3813 1.86708 10.5961 1.32025 9.64474C0.773417 8.69341 0.5 7.64532 0.5 6.50049C0.5 4.68632 1.12983 3.14949 2.3895 1.88999C3.649 0.630322 5.18583 0.000488281 7 0.000488281C8.81417 0.000488281 10.351 0.630322 11.6105 1.88999C12.8702 3.14949 13.5 4.68632 13.5 6.50049C13.5 7.64532 13.2266 8.69341 12.6798 9.64474C12.1329 10.5961 11.3871 11.3813 10.4423 12.0005H3.55775Z" fill="#2DADA4"/>
</svg>
